<?xml version="1.0" standalone="no"?>
<!DOCTYPE svg PUBLIC "-//W3C//DTD SVG 20010904//EN"
 "http://www.w3.org/TR/2001/REC-SVG-20010904/DTD/svg10.dtd">
<svg version="1.0" xmlns="http://www.w3.org/2000/svg"
 width="40.000000pt" height="51.000000pt" viewBox="0 0 40.000000 51.000000"
 preserveAspectRatio="xMidYMid meet">

<g transform="translate(0.000000,51.000000) scale(0.100000,-0.100000)"
fill="#000000" stroke="none">
<path d="M0 255 l0 -255 200 0 200 0 0 255 0 255 -200 0 -200 0 0 -255z m370
100 c0 -77 -4 -125 -10 -125 -5 0 -10 11 -10 25 0 16 -6 25 -15 25 -12 0 -15
14 -15 70 0 56 3 70 15 70 8 0 15 9 15 20 0 12 -7 20 -16 20 -9 0 -18 -9 -21
-20 -3 -11 -12 -20 -19 -20 -8 0 -14 9 -14 20 0 18 -7 20 -66 20 -57 0 -67 -3
-71 -20 -3 -11 -9 -20 -14 -20 -5 0 -12 -18 -15 -40 -4 -22 -10 -40 -15 -40
-5 0 -9 -7 -9 -15 0 -8 -9 -15 -20 -15 -15 0 -20 -7 -20 -25 0 -14 -4 -25 -10
-25 -6 0 -10 43 -10 110 l0 110 170 0 170 0 0 -125z m-120 50 c0 -8 -4 -15
-10 -15 -5 0 -10 -4 -10 -10 0 -5 7 -10 15 -10 8 0 15 5 15 10 0 6 5 10 10 10
6 0 10 -23 9 -52 -1 -49 -2 -51 -12 -25 -12 29 -37 37 -37 12 0 -8 -7 -15 -15
-15 -8 0 -15 -7 -15 -15 0 -8 -7 -15 -15 -15 -8 0 -15 8 -15 18 0 14 -2 15
-10 2 -8 -12 -10 -8 -11 15 -3 46 1 70 11 73 6 2 10 10 10 18 0 10 12 14 40
14 29 0 40 -4 40 -15z m10 -104 c0 -29 -14 -41 -49 -41 -30 1 -33 2 -18 11 10
6 24 8 31 6 10 -4 12 1 9 14 -4 13 0 19 11 19 9 0 16 -4 16 -9z m-150 -31 c0
-5 -4 -10 -10 -10 -5 0 -10 5 -10 10 0 6 5 10 10 10 6 0 10 -4 10 -10z m-20
-30 c0 -5 -7 -10 -15 -10 -8 0 -15 5 -15 10 0 6 7 10 15 10 8 0 15 -4 15 -10z
m140 -30 c0 -5 -4 -10 -9 -10 -5 0 -16 -3 -25 -6 -11 -4 -16 -1 -16 10 0 10 9
16 25 16 14 0 25 -4 25 -10z m-180 -61 c0 -5 -4 -9 -10 -9 -5 0 -10 7 -10 16
0 8 5 12 10 9 6 -3 10 -10 10 -16z m70 1 c0 -5 -7 -10 -15 -10 -8 0 -15 -7
-15 -15 0 -8 7 -15 15 -15 8 0 15 -3 15 -8 0 -15 -41 -42 -65 -42 -20 0 -25 5
-25 25 0 14 5 25 10 25 6 0 10 -7 10 -15 0 -8 9 -15 20 -15 11 0 20 7 20 15 0
8 -7 15 -15 15 -8 0 -15 7 -15 15 0 8 7 15 15 15 8 0 15 5 15 10 0 6 7 10 15
10 8 0 15 -4 15 -10z m250 -25 c0 -8 -4 -15 -10 -15 -5 0 -10 7 -10 15 0 8 5
15 10 15 6 0 10 -7 10 -15z m-170 -55 c0 -5 -7 -10 -15 -10 -8 0 -15 5 -15 10
0 6 7 10 15 10 8 0 15 -4 15 -10z m170 0 c0 -5 -4 -10 -10 -10 -5 0 -10 5 -10
10 0 6 5 10 10 10 6 0 10 -4 10 -10z m-250 -30 c0 -5 -7 -10 -15 -10 -8 0 -15
5 -15 10 0 6 7 10 15 10 8 0 15 -4 15 -10z m50 0 c0 -5 -7 -10 -16 -10 -8 0
-12 5 -9 10 3 6 10 10 16 10 5 0 9 -4 9 -10z m60 0 c0 -5 -7 -10 -15 -10 -8 0
-15 5 -15 10 0 6 7 10 15 10 8 0 15 -4 15 -10z m50 0 c0 -5 -4 -10 -10 -10 -5
0 -10 5 -10 10 0 6 5 10 10 10 6 0 10 -4 10 -10z m60 0 c0 -5 -4 -10 -10 -10
-5 0 -10 5 -10 10 0 6 5 10 10 10 6 0 10 -4 10 -10z"/>
<path d="M177 363 c-12 -11 -8 -23 8 -23 8 0 15 7 15 15 0 16 -12 20 -23 8z"/>
</g>
</svg>
